<?xml version="1.0" encoding="utf-8"?>
<!-- Generator: Adobe Illustrator 24.1.1, SVG Export Plug-In . SVG Version: 6.00 Build 0)  -->
<svg version="1.1" id="Icons" xmlns="http://www.w3.org/2000/svg" xmlns:xlink="http://www.w3.org/1999/xlink" x="0px" y="0px"
	 viewBox="0 0 512 512" style="enable-background:new 0 0 512 512;" xml:space="preserve">
<style type="text/css">
	.st0{fill:#FFFFFF;}
</style>
<path class="st0" d="M358.4,406.58H153.6c-3.82,0-6.92-3.1-6.92-6.92c0-3.82,3.1-6.92,6.92-6.92h204.8c3.82,0,6.92,3.1,6.92,6.92
	C365.32,403.49,362.22,406.58,358.4,406.58z"/>
<path class="st0" d="M477.41,406.58h-47.05c-3.82,0-6.92-3.1-6.92-6.92c0-3.82,3.1-6.92,6.92-6.92h47.05c3.82,0,6.92-3.1,6.92-6.92
	v-72.23c-0.04-9.74-6.05-18.47-15.14-21.98l-26.98-10.3c-1.05-0.4-1.98-1.05-2.73-1.9l-88.29-100.39c-2.74-3.12-6.7-4.91-10.86-4.91
	H34.59c-3.82,0-6.92,3.1-6.92,6.92v204.8c0,3.82,3.1,6.92,6.92,6.92h47.05c3.82,0,6.92,3.1,6.92,6.92c0,3.82-3.1,6.92-6.92,6.92
	H34.59c-11.46,0-20.76-9.29-20.76-20.76v-204.8c0-11.46,9.29-20.76,20.76-20.76h305.75c8.13,0.01,15.87,3.51,21.25,9.61l87.18,99.11
	l25.39,9.69c14.43,5.59,23.95,19.45,24.01,34.92v72.23C498.16,397.29,488.87,406.58,477.41,406.58L477.41,406.58z"/>
<path class="st0" d="M394.38,442.55c-23.69,0-42.9-19.21-42.9-42.9c0-23.69,19.21-42.9,42.9-42.9c23.69,0,42.9,19.21,42.9,42.9
	C437.24,423.33,418.06,442.52,394.38,442.55z M394.38,370.6c-16.05,0-29.06,13.01-29.06,29.06c0,16.05,13.01,29.06,29.06,29.06
	s29.06-13.01,29.06-29.06c-0.01-16.05-13.01-29.06-29.06-29.09V370.6z"/>
<path class="st0" d="M117.62,442.55c-23.69,0-42.9-19.21-42.9-42.9c0-23.69,19.21-42.9,42.9-42.9c23.69,0,42.9,19.21,42.9,42.9
	C160.48,423.33,141.3,442.52,117.62,442.55z M117.62,370.6c-16.05,0-29.06,13.01-29.06,29.06c0,16.05,13.01,29.06,29.06,29.06
	s29.06-13.01,29.06-29.06c-0.01-16.05-13.01-29.06-29.06-29.09V370.6z"/>
<path class="st0" d="M401.3,281.77H300.22c-3.82,0-6.92-3.1-6.92-6.92v-77.91c0-3.82,3.1-6.92,6.92-6.92h33.4
	c2,0,3.91,0.87,5.22,2.39l67.67,77.91c2.51,2.88,2.2,7.25-0.68,9.76C404.58,281.16,402.97,281.77,401.3,281.77L401.3,281.77z
	 M307.14,267.93h78.99l-55.66-64.08h-23.33V267.93z"/>
<path class="st0" d="M163.45,311.35h-33.13c-3.82,0-6.92-3.1-6.92-6.92v-23.34h-23.36c-3.82,0-6.92-3.1-6.92-6.92v-33.12
	c0-3.82,3.1-6.92,6.92-6.92h23.36v-23.37c0-3.82,3.1-6.92,6.92-6.92h33.13c3.82,0,6.92,3.1,6.92,6.92v23.37h23.36
	c3.82,0,6.92,3.1,6.92,6.92v33.12c0,3.82-3.1,6.92-6.92,6.92h-23.36v23.34C170.37,308.25,167.27,311.35,163.45,311.35z
	 M137.24,297.51h19.29v-23.34c0-3.82,3.1-6.92,6.92-6.92h23.36v-19.28h-23.36c-3.82,0-6.92-3.1-6.92-6.92v-23.37h-19.29v23.37
	c0,3.82-3.1,6.92-6.92,6.92h-23.36v19.28h23.36c3.82,0,6.92,3.1,6.92,6.92V297.51z"/>
<path class="st0" d="M309.62,172.72h-63.57c-3.82,0-6.92-3.1-6.92-6.92v-13.4c0-21.38,17.33-38.7,38.71-38.7
	c21.37,0,38.7,17.33,38.7,38.7v13.4C316.54,169.62,313.44,172.72,309.62,172.72z M252.97,158.88h49.73v-6.48
	c-0.01-13.73-11.14-24.86-24.88-24.86c-13.73,0.01-24.85,11.13-24.86,24.86V158.88z"/>
<path class="st0" d="M277.84,93.7c-3.82,0-6.92-3.1-6.92-6.92V76.36c0-3.82,3.1-6.92,6.92-6.92c3.82,0,6.92,3.1,6.92,6.92v10.42
	C284.76,90.61,281.66,93.7,277.84,93.7z"/>
<path class="st0" d="M316.06,107.89c-3.82,0.02-6.93-3.07-6.95-6.89c-0.01-1.53,0.49-3.01,1.42-4.22l6.79-8.92
	c2.32-3.04,6.66-3.63,9.7-1.31c3.04,2.32,3.63,6.66,1.31,9.7l0,0l-6.75,8.93C320.26,106.89,318.22,107.89,316.06,107.89
	L316.06,107.89z"/>
<path class="st0" d="M239.62,107.89c-2.17,0.01-4.22-1-5.54-2.73l-6.79-8.92c-2.31-3.05-1.72-7.39,1.33-9.7
	c3.05-2.31,7.39-1.72,9.7,1.33l0,0l6.79,8.92c2.32,3.04,1.73,7.38-1.31,9.7c-1.2,0.92-2.68,1.41-4.19,1.42L239.62,107.89z"/>
<path class="st0" d="M337.64,136.39c-3.82,0-6.92-3.1-6.92-6.92c0-3.32,2.35-6.17,5.61-6.8l12.4-2.39c3.75-0.72,7.38,1.73,8.11,5.48
	c0.72,3.75-1.73,7.38-5.48,8.11l-12.4,2.43C338.52,136.38,338.08,136.41,337.64,136.39L337.64,136.39z"/>
<path class="st0" d="M218.04,136.39c-0.44,0-0.89-0.04-1.32-0.12l-12.4-2.39c-3.75-0.72-6.21-4.35-5.48-8.11
	c0.72-3.75,4.35-6.21,8.11-5.48l0,0l12.4,2.39c3.75,0.72,6.21,4.35,5.49,8.1C224.2,134.04,221.35,136.39,218.04,136.39z"/>
</svg>
