<?xml version="1.0" encoding="utf-8"?>
<!-- Generator: Adobe Illustrator 24.1.1, SVG Export Plug-In . SVG Version: 6.00 Build 0)  -->
<svg version="1.1" id="Layer_1" xmlns="http://www.w3.org/2000/svg" xmlns:xlink="http://www.w3.org/1999/xlink" x="0px" y="0px"
	 viewBox="0 0 165.1 143" style="enable-background:new 0 0 165.1 143;" xml:space="preserve">
<style type="text/css">
	.st0{fill:#FFFFFF;}
</style>
<g id="XMLID_10438_">
	<path id="XMLID_10445_" class="st0" d="M141.1,64.5h-11.6c-1.1,0-1.9,0.8-1.9,1.9v7.3H42.5V50.4c0-1-0.8-1.9-1.9-1.9H29
		c-1,0-1.9,0.8-1.9,1.9v66.5c0,1.1,0.9,1.9,1.9,1.9h11.6c1,0,1.9-0.8,1.9-1.9V96.1h85.1v20.8c0,1.1,0.9,1.9,1.9,1.9h11.6
		c1.1,0,1.9-0.8,1.9-1.9V94.2V75.6v-9.2C143,65.4,142.2,64.5,141.1,64.5z M131.4,115V68.3h7.8v9.2v14.9V115H131.4z M30.9,115V52.3
		h7.8V115C38.7,115,30.9,115,30.9,115z M42.5,77.5h85.1v14.9H42.5V77.5z"/>
	<path id="XMLID_10442_" class="st0" d="M50.1,57.8c-3.1,0-5.7,2.6-5.7,5.7v2.6c0,3.1,2.6,5.7,5.7,5.7h14c3.1,0,5.7-2.6,5.7-5.7
		v-2.6c0-3.1-2.6-5.7-5.7-5.7H50.1z M66.1,66.1c0,1.1-0.8,1.9-1.9,1.9h-14c-1,0-1.9-0.8-1.9-1.9v-2.6c0-1,0.8-1.9,1.9-1.9h14
		c1.1,0,1.9,0.8,1.9,1.9V66.1z"/>
	<path id="XMLID_10439_" class="st0" d="M97.8,52.2h11.1c0.8,0,1.4-0.6,1.4-1.4v-9.5h9.6c0.8,0,1.4-0.6,1.4-1.4V28.6
		c0-0.8-0.6-1.4-1.4-1.4h-9.6v-9.5c0-0.8-0.6-1.4-1.4-1.4H97.8c-0.8,0-1.4,0.6-1.4,1.4v9.5h-9.6c-0.8,0-1.4,0.6-1.4,1.4v11.1
		c0,0.8,0.6,1.4,1.4,1.4h9.6v9.5C96.3,51.5,97,52.2,97.8,52.2z M88.2,30h9.6c0.8,0,1.4-0.6,1.4-1.4v-9.6h8.3v9.5
		c0,0.8,0.6,1.4,1.4,1.4h9.6v8.3h-9.6c-0.8,0-1.4,0.6-1.4,1.4v9.5h-8.3v-9.5c0-0.8-0.6-1.4-1.4-1.4h-9.6V30z"/>
</g>
</svg>
