<?xml version="1.0" encoding="utf-8"?>
<!-- Generator: Adobe Illustrator 24.1.1, SVG Export Plug-In . SVG Version: 6.00 Build 0)  -->
<svg version="1.1" id="Layer_1" xmlns="http://www.w3.org/2000/svg" xmlns:xlink="http://www.w3.org/1999/xlink" x="0px" y="0px"
	 viewBox="0 0 285 263" style="enable-background:new 0 0 285 263;" xml:space="preserve">
<style type="text/css">
	.st0{fill:#FF00FF;}
</style>
<g>
	<path class="st0" d="M65.78,179.83c0-15.22,0.82-5.78,2.25-0.5c1.43,8.48,3.47-20.82,5.93,7.77c1.23,8.61,2.55,9.01,3.96,7.77
		c1.41-10.05,2.89,4.64,4.42-0.64c1.53,9.35,3.12-2.43,4.73,5.14c1.61,2.64,3.24,4.47,4.88,3.72c3.27,7.8,6.54,5.1,9.61,5.51
		c1.53,0.36,3.01-2.5,4.42,3.82c1.41,4.54,2.73-4.3,3.96,6.65c2.45,5.31,4.5,1.14,5.93,0.79c1.43,5.44,2.25,0.1,2.25,6.47
		c0-12.74,1.52-7.86,4.26-4.79c0.68,10.74,1.45,0.57,2.28,8.11c0.83,3.46,1.74,11.05,2.7-13.6c0.48-4.13,0.99-18.43,1.5-9.74
		c0.52-4.94,1.05,5.85,1.6-0.68c1.1-0.4,2.26,8.64,3.48,2.89c1.22-10.84,2.49-8.39,3.82-8.03c0.66,3.42,1.34-15.73,2.03-10.24
		c0.69,4.58,1.39,1.27,2.1,6.99c1.43-5.49,2.9-13.64,4.42-3.65c1.52-20.22,3.08-2.05,4.67-4.24c1.6-4.34,3.23-31.29,4.9-7.9
		c1.67-28.96,3.37-14.73,5.1-6.06c1.73-4.92,3.49-9.53,5.27-4.36c0.89,9.01,1.79,10.74,2.69,2.01c0.9,1.73,1.81-3.26,2.72-6.95
		c0.91,11.49,1.83,5.28,2.75,9.32c0.92-8.45,1.85-12.97,2.78-11.62c0.93-10.07,1.86-6.08,2.8-13.43c0.94-7.67,1.87,7.24,2.82,5.56
		c0.94,2.52,1.88-1.65,2.83,1.71c0.95,1.8,1.89,7.19,2.84-13.88c0.95-2.47,1.9-9.34,2.85-12.26c0.95,6.73,1.9,9.81,2.85,9.26
		c0.95,3.52,1.9,10.18,2.85,4.31c0.95-5.93,1.9-3.13,2.85-10.1c1.9,4.28,3.79,2.76,5.67-6.74c1.88,15.77,3.76-6.39,5.61-4.88
		c1.86-17.02,3.7,0.04,5.53-7.92c1.83-5.22,3.63,0.96,5.41-6.09c0.89,2.57,1.78-3.43,2.66,2.45c0.88,2.21,1.75,1.39,2.62-10.25
		c1.73-9.97,3.43-10.84,5.1-7.47c1.67-9.19,3.3,3.58,4.9-1.92c0.8,13.21,1.59,4.78,2.37,5.39c0.78,3.7,1.55-12.17,2.31-10.75
		c1.52,1.41,2.99-8.64,4.42-4.86c0.71-4.15,1.41-1.52,2.1-4.12c0.69,3.96,1.36,10.94,2.03-3.68c1.33-1.47,2.6,1.7,3.82-1.14
		c2.43-6.99,4.64-5.95,6.58-8.48c1.94-12.47,3.61,2.02,4.98-4.53c1.37,5.12,2.43,1.68,3.16,4.01c0.72,7.79,1.1-11.16,1.1-8.8
		c0,23.68-0.82,6.45-2.25,0.93c-1.43,3.39-3.47-14.48-5.93-8.2c-1.23-5.92-2.55-10.81-3.96-3.65c-1.41,9.88-2.89-0.04-4.42-1.65
		c-1.53-8.31-3.12-8.75-4.73-9.2c-1.61-7.04-3.24,1.1-4.88-1.48c-1.64-7.58-3.27-0.77-4.88-2.99c-1.61-4.42-3.19-5.97-4.73-7.5
		c-1.53-1.75-3.01,6.84-4.42,2.56c-1.41-10.66-2.73-10.25-3.96-8.05c-4.91-5.77-8.18-13.25-8.18-7.27c0-10.49-1.52-0.57-4.26,4.79
		c-1.37,3.84-3.04,13.85-4.98,6.65c-1.94,15.75-4.15,11.41-6.58,6.36c-1.22,0.01-2.49-1.29-3.82,0.64
		c-1.33,12.81-2.7-3.42-4.13,8.26c-0.71-1.58-1.44,8.41-2.17,11.89c-0.74,5.33-1.48-4.4-2.24-6.53c-1.52-18.21-3.08-2.95-4.67,4.9
		c-1.6,24.14-3.23,0.68-4.9,7.28c-0.83-16.71-1.68-11.21-2.53-1.1c-0.85-12.74-1.71,19.67-2.57,8.53
		c-0.87,9.76-1.74,11.01-2.62,8.74c-0.88-6.69-1.76-3.48-2.66-3.44c-1.78-0.6-3.59,5.37-5.41,3.26c-1.83-5.33-3.67-10.21-5.53,5.31
		c-1.86,17.23-3.73-4.66-5.61,4.72c-1.88-10.73-3.77-0.9-5.67,4.34c-1.9,3.22-3.8,2.88-5.7,10.96c-1.9-1.94-3.8-3.36-5.7,4.85
		c-1.9,18.16-3.79,4.05-5.67,5.52c-1.88-9.58-3.76,4.41-5.61,2.58c-1.86,2.1-3.7,10.52-5.53,12.39c-1.83-3.43-3.63,1.73-5.41,5.56
		c-1.78,4.02-3.54,10.92-5.27,6.96c-1.73,6.8-3.43,21.11-5.1,7.22c-1.67-0.91-3.3,25.04-4.9,3.53c-1.6-6.68-3.16-2.85-4.67,3.32
		c-1.52,0.88-2.99-1.68-4.42,3.76c-1.43,14.3-2.8,2.08-4.13,3.92c-1.33,15.63-2.6,16.13-3.82,8.17c-1.22,13.83-2.38,31.97-3.48,14.9
		c-1.1-2.24-2.13,6.59-3.1-0.27c-1.94,13.97-3.61-11.18-4.98-1.62C67.3,183.03,65.78,201.68,65.78,179.83z"/>
</g>
<g>
	<path class="st0" d="M185.76,45.88c4.11,14.66,0.77,5.79-2.03,1.09c-3.67-7.78,2.28,20.98-7.8-5.88c-3.51-7.96-4.89-7.99-5.91-6.41
		c1.36,10.05-4.03-3.69-4.08,1.81c-4-8.59-2.35,3.18-5.94-3.68c-2.26-2.11-4.33-3.43-5.7-2.26c-5.25-6.62-7.67-3.14-10.74-2.72
		c-1.57,0.07-2.23,3.22-5.29-2.49c-2.58-3.99-1.47,4.88-5.61-5.33c-3.79-4.45-4.64,0.12-5.92,0.84c-2.85-4.85-2.19,0.51-3.91-5.62
		c3.44,12.26,0.66,7.98-2.81,5.76c-3.56-10.16-1.55-0.16-4.38-7.2c-1.74-3.11-4.65-10.17,1.07,13.82c0.65,4.11,4.03,18.01,1.18,9.78
		c0.84,4.9-2.59-5.35-1.36,1.08c-0.95,0.68-4.51-7.71-4.13-1.84c1.76,10.77-0.13,8.75-1.51,8.77c-1.56-3.12,2.96,15.51,0.81,10.4
		c-1.9-4.22-1.68-0.85-3.91-6.16c0.11,5.67,0.89,13.91-3.27,4.71c4,19.88-2.41,2.81-3.35,5.35c-0.37,4.61,5.34,31-2.59,8.93
		c6.21,28.34,0.73,15.09-3.27,7.22c-0.34,5.21-0.79,10.11-3.9,5.63c-3.29-8.44-4.62-9.86-3.13-1.21c-1.34-1.42-0.86,3.63-0.74,7.43
		c-3.98-10.82-3.19-4.59-5.17-8.23c1.39,8.38,1.72,12.98,0.46,11.93c1.82,9.95-0.15,6.36,0.93,13.68c1.17,7.64-3.76-6.47-4.21-4.59
		c-1.59-2.17-1.37,2.1-3.19-0.88c-1.4-1.48-3.76-6.41,1.01,14.13c-0.25,2.64,0.69,9.51,0.57,12.58c-2.73-6.23-4.48-8.93-5.25-8.15
		c-1.87-3.13-4.58-9.29-3.91-3.38c0.69,5.97-0.98,3.52-0.01,10.5c-2.98-3.61-4.39-1.64-3.64,8.02c-6.07-14.68-1.89,7.16-4.09,6.21
		c2.81,16.89-3.58,0.96-3.18,9.12c-0.35,5.52-3.76,0.06-3.57,7.32c-1.55-2.23-0.78,3.78-3.22-1.64c-1.44-1.89-2.06-0.87,0.25,10.57
		c1.03,10.07-0.38,11.36-2.89,8.57c0.87,9.3-4.15-2.55-4.2,3.18c-4.34-12.51-2.82-4.17-3.73-4.55c-1.75-3.35,1.79,12.13,0.68,10.98
		c-1.84-0.95-0.55,9.12-2.94,5.87c0.43,4.19-0.95,1.84-0.91,4.54c-1.73-3.63-4.27-10.16-0.96,4.09c-0.88,1.77-2.96-0.94-3.37,2.13
		c-0.46,7.39-2.86,6.98-4.05,9.94c1.5,12.53-4.02-0.97-3.57,5.71c-2.7-4.56-2.8-0.96-4.12-3.01c-2.8-7.31,1.95,11.05,1.31,8.77
		c-6.39-22.8-0.96-6.43,1.91-1.5c0.46-3.65,7.26,13.01,7.92,6.29c2.78,5.37,5.38,9.72,4.8,2.45c-1.32-9.9,2.79-0.74,4.7,0.4
		c3.72,7.59,5.36,7.58,7.03,7.58c3.45,6.34,2.83-1.93,5.1,0.11c3.62,6.85,3.36-0.14,5.51,1.57c2.74,3.82,4.69,4.89,6.58,5.95
		c1.95,1.28,1.05-7.4,3.56-3.66c4.23,9.89,5.4,9.13,5.99,6.69c6.28,4.23,11.45,10.55,9.83,4.79c2.83,10.1,1.62,0.14,2.81-5.76
		c0.28-4.07-0.81-14.16,3-7.75c-2.39-15.69,0.91-12.1,4.62-7.9c1.17-0.34,2.75,0.57,3.5-1.65c-2.18-12.7,3.53,2.56,1.75-9.07
		c1.11,1.33-0.89-8.49-1.12-12.04c-0.73-5.33,2.62,3.84,3.92,5.68c6.38,17.12,3.76,2.01,3.18-5.98c-4.98-23.67,2.93-1.53,2.75-8.34
		c5.31,15.86,4.64,10.34,2.73,0.38c4.26,12.04-3.67-19.4,0.18-8.91c-1.8-9.63-1.3-11.07,0.16-9.12c2.65,6.21,2.64,2.87,3.49,2.59
		c1.88,0.1,2.01-6.14,4.33-4.6c3.2,4.64,6.29,8.84,3.89-6.6c-2.86-17.1,4.85,3.48,4.13-6.06c4.71,9.82,3.88-0.15,4.29-5.71
		c0.96-3.61,2.88-3.8,2.53-12.09c2.35,1.35,4.57,2.21,4.18-6.21c-3.08-18,2.56-4.92,3.97-6.85c4.4,8.71,2.43-5.26,4.71-4
		c1.22-2.52,0.73-11.13,1.98-13.42c2.68,2.81,3.03-2.64,3.71-6.82c0.63-4.35,0.46-11.47,3.2-8.13c-0.17-7.02-2.4-21.25,2.96-8.33
		c1.85,0.43-3.58-25,3.77-4.72c3.34,6,3.81,1.89,3.6-4.46c1.22-1.25,3.33,0.81,3.24-4.81c-2.49-14.15,2.14-2.76,2.92-4.89
		c-2.94-15.41-1.85-16.24,1.47-8.9c-2.56-13.64-6.34-31.42-0.68-15.29c1.66,1.86,0.28-6.92,3.06-0.58
		c-1.91-13.98,6.5,9.79,5.24,0.22C183.43,43.21,179.86,24.84,185.76,45.88z"/>
</g>
</svg>
