<?xml version="1.0" encoding="utf-8"?>
<!-- Generator: Adobe Illustrator 24.1.1, SVG Export Plug-In . SVG Version: 6.00 Build 0)  -->
<svg version="1.1" id="Capa_1" xmlns="http://www.w3.org/2000/svg" xmlns:xlink="http://www.w3.org/1999/xlink" x="0px" y="0px"
	 viewBox="0 0 512 512" style="enable-background:new 0 0 512 512;" xml:space="preserve">
<style type="text/css">
	.st0{fill:none;stroke:#FFFFFF;stroke-width:3;stroke-miterlimit:10;}
</style>
<g>
	<g>
		<path class="st0" d="M207.9,160.3c-4.1,0-7.5,3.4-7.5,7.5v8c0,4.1,3.4,7.5,7.5,7.5s7.5-3.4,7.5-7.5v-8
			C215.4,163.7,212,160.3,207.9,160.3z"/>
	</g>
</g>
<g>
	<g>
		<path class="st0" d="M304.1,160.3c-4.1,0-7.5,3.4-7.5,7.5v8c0,4.1,3.4,7.5,7.5,7.5s7.5-3.4,7.5-7.5v-8
			C311.6,163.7,308.2,160.3,304.1,160.3z"/>
	</g>
</g>
<g>
	<g>
		<path class="st0" d="M285.4,218.7c-2.9-3-7.7-3-10.6-0.1c-2.7,2.7-9.3,5.9-18.8,5.9c-9.5,0-16-3.2-18.8-5.9
			c-2.9-2.9-7.7-2.9-10.6,0.1c-2.9,2.9-2.9,7.7,0.1,10.6c6.5,6.4,17.4,10.2,29.3,10.2c11.9,0,22.9-3.8,29.3-10.2
			C288.3,226.4,288.3,221.6,285.4,218.7z"/>
	</g>
</g>
<g>
	<g>
		<path class="st0" d="M215.9,136.3h-16c-4.1,0-7.5,3.4-7.5,7.5s3.4,7.5,7.5,7.5h16c4.1,0,7.5-3.4,7.5-7.5S220.1,136.3,215.9,136.3z
			"/>
	</g>
</g>
<g>
	<g>
		<path class="st0" d="M312.1,136.3h-16c-4.1,0-7.5,3.4-7.5,7.5s3.4,7.5,7.5,7.5h16c4.1,0,7.5-3.4,7.5-7.5S316.3,136.3,312.1,136.3z
			"/>
	</g>
</g>
<g>
	<g>
		<path class="st0" d="M411.5,356.9l-52.3-16.1c0.1-1.6,0-3.2-0.4-4.8c-1.1-4.9-4.4-8.9-8.8-11.1l-32.4-16.2v-23.1
			c24.2-16.8,41.3-43.3,45.5-73.8h4.3c14.2,0,26.3-10.5,27.6-23.9c0.8-7.5-1.7-15-6.8-20.6c-2.4-2.7-5.4-4.8-8.6-6.3V80.4
			c0-29.7-24.1-53.8-53.8-53.8c0,0-0.5,0-1.2,0C311.5,16.9,292.3,11,271,11c-45.4,0-66.2,9.4-90.3,20.4
			c-12.9,5.8-26.2,11.9-45.1,17.4c-2,0.6-3.6,2-4.5,3.8c-0.9,1.9-0.9,4-0.1,5.9c0.2,0.5,3.5,8.1,11.8,17.2
			c-3.6,4.4-10.5,15.8-10.5,38.2v47.3c-8.4,4-14.5,11.9-15.4,21.2c-0.8,7.5,1.7,15,6.8,20.6c5,5.6,12.3,8.8,19.8,8.8h5.4
			c4.3,30.5,21.3,57,45.5,73.8v23.1L162,324.9c-4.5,2.2-7.7,6.3-8.8,11.1c-0.4,1.6-0.5,3.2-0.4,4.8l-52.3,16.1
			c-22.7,7-38,27.7-38,51.5v91.1c0,4,3.3,7.3,7.3,7.3c4,0,7.3-3.3,7.3-7.3v-91.1c0-17.4,11.2-32.5,27.8-37.6l54.4-16.7l9.6,12.8
			l-10.9,10.9c-6.9,6.9-8.7,17.5-4.3,26.3l20.8,41.6h-19.8v-8.3c0-4-3.3-7.3-7.3-7.3s-7.3,3.3-7.3,7.3v8.3h-31.5
			c-4,0-7.3,3.3-7.3,7.3v46.6c0,4,3.3,7.3,7.3,7.3h77.6c4,0,7.3-3.3,7.3-7.3v-15.8l9.5,19.1c1.3,2.5,3.8,4,6.5,4
			c1.1,0,2.2-0.2,3.2-0.8c3.6-1.8,5-6.2,3.2-9.7l-49.3-98.6c-1.6-3.2-1-7,1.5-9.5l15.4-15.4c2.6-2.6,2.8-6.6,0.7-9.5l-16.5-21.9
			c-0.5-0.7-0.5-1.5-0.4-1.9c0.1-0.4,0.4-1.1,1.2-1.5l28.6-14.3l20.2,69.2c1.1,3.9,5.2,6.1,9,4.9c3.9-1.1,6.1-5.2,4.9-9l-3.2-10.9
			c8.9,3.1,18.4,4.7,27.9,4.7c9.5,0,19-1.6,27.9-4.7L256,473.5l-15.7-53.7c-1.1-3.9-5.2-6.1-9-4.9c-3.9,1.1-6.1,5.2-4.9,9l22.6,77.6
			c0.9,3.1,3.7,5.2,7,5.2c3.2,0,6.1-2.1,7-5.2l51.9-177.9l28.6,14.3c0.8,0.4,1.1,1.1,1.2,1.5c0.1,0.4,0.2,1.1-0.4,1.9l-16.5,21.9
			c-2.2,2.9-1.9,6.9,0.7,9.5l15.4,15.4c2.5,2.5,3.1,6.4,1.5,9.5l-49.3,98.7c-1.8,3.6-0.3,7.9,3.2,9.7c1,0.5,2.2,0.8,3.2,0.8
			c2.7,0,5.2-1.5,6.5-4l49.3-98.6c4.4-8.8,2.7-19.4-4.3-26.3l-10.9-10.9l9.6-12.8l54.4,16.7c16.6,5.1,27.8,20.2,27.8,37.6v91.1
			c0,4,3.3,7.3,7.3,7.3s7.3-3.3,7.3-7.3v-91.1C449.5,384.5,434.3,363.9,411.5,356.9z M178.9,492.2h-63.1v-32h24.3v0.5
			c0,4,3.3,7.3,7.3,7.3s7.3-3.3,7.3-7.3v-0.5h24.3L178.9,492.2L178.9,492.2z M186.7,44.6c23.5-10.7,42.1-19.1,84.3-19.1
			c26.8,0,50.7,11.2,55.7,26.1c1.3,3.8,5.4,5.9,9.2,4.6c3.8-1.3,5.9-5.4,4.6-9.2c-0.4-1.3-0.9-2.5-1.5-3.7c15.2,5.4,26.1,20,26.1,37
			v78.1h-8.3c-4.6,0-8.3-3.7-8.3-8.3v-7.8c0-33.7-24.4-58.4-25.4-59.5c-1.9-1.9-4.7-2.6-7.3-1.8c-40.3,12.7-97.1,23.5-139,2.3
			C162,75.9,153.2,66.4,148.6,60C164,54.9,176,49.5,186.7,44.6z M303.1,312.1l-13.9,47.5c-10.2,5.4-21.6,8.3-33.2,8.3
			c-11.6,0-23-2.9-33.2-8.3l-13.9-47.6v-18c14.2,6.9,30.2,10.8,47.1,10.8c16.9,0,32.8-3.9,47.1-10.8V312.1z M256,290.4
			c-51.6,0-93.6-42-93.6-93.6c0-4-3.3-7.3-7.3-7.3c-4,0-7.3,3.3-7.3,7.3v0.5h-4.4c-3.4,0-6.7-1.5-9-4c-2.3-2.6-3.4-5.9-3.1-9.4
			c0.6-6.1,6.4-10.9,13.2-10.9h10.5c12.6,0,22.8-10.2,22.8-22.8v-27.4c0-4-3.3-7.3-7.3-7.3c-4,0-7.3,3.3-7.3,7.3v27.4
			c0,4.6-3.7,8.3-8.3,8.3h-8.3V114c0-16.9,4.5-25.3,6.6-28.3c4.4,3.5,9.6,7,15.7,10.1c16.5,8.6,36,13.3,58.2,14.1
			c26,0.9,55.7-3.6,88.3-13.5c5.8,7,18.3,24.7,18.3,46v7.8c0,12.6,10.2,22.8,22.8,22.8h11.6c3.4,0,6.7,1.5,9,4
			c2.3,2.6,3.4,5.9,3.1,9.4c-0.6,6.1-6.4,10.9-13.2,10.9h-3.3v-0.4c0-4-3.2-7.3-7.3-7.3c0,0,0,0,0,0c-4,0-7.3,3.2-7.3,7.3
			C349.6,248.4,307.6,290.4,256,290.4z"/>
	</g>
</g>
<g>
	<g>
		<path class="st0" d="M408.3,452.9h-12.5v-12.5c0-4.1-3.4-7.5-7.5-7.5s-7.5,3.4-7.5,7.5v12.5h-12.5c-4.1,0-7.5,3.4-7.5,7.5
			s3.4,7.5,7.5,7.5h12.5v12.5c0,4.1,3.4,7.5,7.5,7.5s7.5-3.4,7.5-7.5v-12.5h12.5c4.1,0,7.5-3.4,7.5-7.5S412.5,452.9,408.3,452.9z"/>
	</g>
</g>
</svg>
