<svg id="Capa_1" enable-background="new 0 0 512 512" height="512" viewBox="0 0 512 512" width="512" xmlns="http://www.w3.org/2000/svg"><g><path d="m56.39 416.301c-35.237-43.821-56.34-99.489-56.39-160.085-.117-141.122 114.879-256.216 256.001-256.216 141.384 0 255.999 114.616 255.999 256 0 60.359-20.889 115.839-55.833 159.605-5.622 7.042-14.185 11.09-23.196 11.09h-355.052c-8.386.001-16.274-3.859-21.529-10.394z" fill="#51489a"/><path d="m456.649 256c0 110.815-89.834 200.649-200.649 200.649s-200.649-89.834-200.649-200.649 89.834-200.649 200.649-200.649 200.649 89.834 200.649 200.649z" fill="#5f55af"/><path d="m456.649 415c-46.894 59.098-119.345 97-200.649 97s-153.755-37.902-200.649-97z" fill="#453d83"/><path d="m212.334 105.989-57.305 77.972c-.98 1.333-2.496 2.039-4.033 2.039-1.028 0-2.065-.315-2.957-.971-2.226-1.636-2.703-4.766-1.068-6.99l56.607-77.023-77.539-56.986c-1.333-.98-2.039-2.496-2.039-4.033 0-1.028.315-2.065.971-2.957 1.636-2.226 4.766-2.703 6.99-1.068l78.119 57.413c1.563-.651 3.673 12.508 2.254 12.604z" fill="#5766ce"/><path d="m136.426 320.426c-1.953 1.953-5.118 1.953-7.071 0l-77.782-77.782c-1.953-1.953-1.953-5.118 0-7.071 1.953-1.953 5.118-1.953 7.071 0l77.782 77.782c1.953 1.953 1.953 5.119 0 7.071z" fill="#6e9213"/><path d="m96.607 195.606c-5.858 5.858-15.355 5.858-21.213 0s-5.858-15.355 0-21.213 15.355-5.858 21.213 0c5.857 5.858 5.857 15.356 0 21.213zm-24.536-74.677c-3.905-3.905-10.237-3.905-14.142 0s-3.905 10.237 0 14.143c3.905 3.905 10.237 3.905 14.142 0 3.905-3.906 3.905-10.238 0-14.143z" fill="#9bcf1b"/><path d="m166.3 358.547c-14.887 14.887-39.024 14.887-53.911 0s-14.887-39.024 0-53.912 39.024-14.887 53.911 0c14.887 14.888 14.887 39.025 0 53.912zm-134.33-141.517c-9.925 9.925-9.925 26.016 0 35.941s26.016 9.925 35.941 0 9.925-26.016 0-35.941c-9.924-9.925-26.016-9.925-35.941 0z" fill="#b9e746"/><path d="m44.655 217.03c-9.925 9.925-9.925 26.016 0 35.941 3.336 3.335 7.368 5.55 11.628 6.644-8.416 2.16-17.724-.054-24.313-6.644-9.925-9.925-9.925-26.016 0-35.941 6.589-6.589 15.897-8.804 24.313-6.644-4.26 1.093-8.292 3.308-11.628 6.644zm86.761 87.606c5.003-5.003 11.051-8.325 17.442-9.965-12.625-3.24-26.586.082-36.47 9.965-14.887 14.887-14.887 39.024 0 53.912 9.884 9.884 23.845 13.206 36.47 9.965-6.391-1.64-12.439-4.962-17.442-9.965-14.887-14.888-14.887-39.025 0-53.912z" fill="#9bcf1b"/><path d="m480 285c0 80.081-64.919 145-145 145s-145-64.919-145-145 64.919-145 145-145 145 64.919 145 145z" fill="#8c96dd"/><path d="m470 285c0 74.558-60.442 135-135 135s-135-60.442-135-135 60.442-135 135-135 135 60.442 135 135z" fill="#717ed6"/><path d="m446.756 360.756c-24.284 35.755-65.277 59.244-111.756 59.244-74.558 0-135-60.441-135-135 0-46.479 23.489-87.472 59.244-111.756-14.671 21.6-23.244 47.677-23.244 75.756 0 74.559 60.442 135 135 135 28.079 0 54.156-8.573 75.756-23.244z" fill="#5766ce"/><path d="m380 400v30c0 5.523-4.477 10-10 10h-10c0 5.523-4.477 10-10 10h-230c-5.523 0-10-4.477-10-10h-10c-5.523 0-10-4.477-10-10v-30c0-5.523 4.477-10 10-10h270c5.523 0 10 4.477 10 10z" fill="#8c96dd"/><path d="m370 440h-240c-5.523 0-10-4.477-10-10v-30c0-5.523 4.477-10 10-10h240c5.523 0 10 4.477 10 10v30c0 5.523-4.477 10-10 10z" fill="#a6aee5"/><path d="m405.253 45.751 27.996 27.996c2.008 2.008 1.943 5.283-.144 7.21l-227.975 210.431c-1.972 1.82-5.029 1.759-6.927-.139l-10.453-10.453c-1.898-1.898-1.959-4.955-.139-6.927l210.433-227.974c1.926-2.087 5.201-2.152 7.209-.144z" fill="#c8e2fd"/><path d="m433.105 80.956-112.155 103.524c-7.591 7.007-19.424 6.533-26.431-1.058-6.613-7.165-6.613-18.208 0-25.373l103.525-112.154c1.926-2.086 5.202-2.152 7.21-.144l27.996 27.996c2.007 2.008 1.942 5.283-.145 7.209z" fill="#e9f3fe"/><path d="m468.749 10.251c13.668 13.668 13.668 35.829 0 49.497-13.668 13.668-35.829 13.668-49.497 0-13.668-13.668-13.668-35.829 0-49.497 13.668-13.668 35.828-13.668 49.497 0z" fill="#f44545"/><path d="m427.909 66.091c-3.117-1.614-6.043-3.728-8.657-6.342-13.668-13.668-13.668-35.829 0-49.497 13.668-13.668 35.829-13.668 49.497 0 2.615 2.615 4.728 5.54 6.343 8.657-13.179-6.825-29.786-4.711-40.84 6.343-11.055 11.053-13.168 27.661-6.343 40.839z" fill="#d63030"/><path d="m458.142 98.64c-3.905 3.905-10.237 3.905-14.142 0l-63.64-63.64c-3.905-3.905-3.905-10.237 0-14.142 3.905-3.905 10.237-3.905 14.142 0l63.64 63.64c3.905 3.905 3.905 10.236 0 14.142z" fill="#fb5858"/><path d="m260.607 54.394c5.858 5.857 5.858 15.355 0 21.213s-15.355 5.858-21.213 0-5.858-15.355 0-21.213c5.857-5.858 15.355-5.858 21.213 0zm41.464 36.535c-3.905-3.905-10.237-3.905-14.142 0s-3.905 10.237 0 14.143c3.905 3.905 10.237 3.905 14.142 0 3.905-3.906 3.905-10.238 0-14.143z" fill="#55a4f9"/><path d="m144.911 58.971c-9.925 9.925-26.016 9.925-35.941 0s-9.925-26.016 0-35.941 26.016-9.925 35.941 0 9.925 26.016 0 35.941zm-6.053 105.887c-7.81 7.811-7.81 20.474 0 28.284s20.474 7.811 28.284 0 7.81-20.474 0-28.284-20.474-7.811-28.284 0zm87.284-81c-7.81-7.811-20.474-7.811-28.284 0s-7.81 20.474 0 28.284 20.474 7.811 28.284 0 7.811-20.474 0-28.284z" fill="#76b6fa"/><path d="m133.283 65.614c-8.416 2.16-17.724-.054-24.313-6.644-9.925-9.925-9.925-26.016 0-35.941 6.589-6.589 15.897-8.804 24.313-6.644-4.26 1.094-8.292 3.308-11.628 6.644-9.925 9.925-9.925 26.016 0 35.941 3.336 3.336 7.368 5.551 11.628 6.644zm24.708 94.015c-6.623-1.7-13.948.043-19.133 5.229-7.81 7.811-7.81 20.474 0 28.284 5.186 5.186 12.51 6.928 19.133 5.228-3.353-.86-6.526-2.603-9.151-5.228-7.81-7.811-7.81-20.474 0-28.284 2.626-2.625 5.799-4.368 9.151-5.229zm49.85-75.771c2.625-2.625 5.798-4.368 9.151-5.229-6.623-1.7-13.948.043-19.133 5.229-7.81 7.811-7.81 20.474 0 28.284 5.186 5.186 12.51 6.928 19.133 5.228-3.353-.86-6.526-2.603-9.151-5.228-7.811-7.81-7.811-20.474 0-28.284z" fill="#3493f8"/><path d="m312 242c0-2.761 2.239-5 5-5h50c2.761 0 5 2.239 5 5s-2.239 5-5 5h-50c-2.761 0-5-2.239-5-5zm55 35h-50c-2.761 0-5 2.239-5 5s2.239 5 5 5h50c2.761 0 5-2.239 5-5s-2.239-5-5-5zm-30 40h-20c-2.761 0-5 2.239-5 5s2.239 5 5 5h20c2.761 0 5-2.239 5-5s-2.239-5-5-5zm-20-50h40c2.761 0 5-2.239 5-5s-2.239-5-5-5h-40c-2.761 0-5 2.239-5 5s2.239 5 5 5z" fill="#e9f3fe"/></g></svg>