<svg id="Capa_1" enable-background="new 0 0 512 512" height="512" viewBox="0 0 512 512" width="512" xmlns="http://www.w3.org/2000/svg"><g><path d="m388.286 308.299s-44.399 8.701-72.299 8.701c-33.3 0-65.4 15.899-66.599 16.5-.3.3-27.301 13.5-53.401 13.5s-53.101-13.2-53.401-13.5l-11.699-35.7 50.099-75.3v-192.5h-30v-30h210v30h-30v192.499z" fill="#e6f2f2"/><path d="m330.987 30h30v-30h-101.4v329.07c12.253-4.893 33.933-12.07 56.4-12.07 27.9 0 72.299-8.701 72.299-8.701l-57.299-85.8z" fill="#cfe6e6"/><path d="m479.787 488c-7.8 14.7-23.1 24-39.9 24h-367.8c-16.8 0-32.1-9.3-39.9-24s-6.6-32.4 2.7-45.9l79.2-119.4h.3l16.5-24.9 11.7 5.7c.3.3 27.3 13.5 53.4 13.5s53.1-13.2 53.4-13.5c.4-.2 4.15-2.06 10.2-4.47 12.3-4.89 34.08-12.03 56.4-12.03 35.59 0 72.3 21.3 72.3 21.3 3.29 4.86-3.46-5.37 29.1 43.8l60 90c9 13.5 10.2 31.2 2.4 45.9z" fill="#5ce6cf"/><path d="m479.787 488c-7.8 14.7-23.1 24-39.9 24h-180.3v-212.97c12.3-4.89 34.08-12.03 56.4-12.03 35.59 0 72.3 21.3 72.3 21.3 3.29 4.86-3.46-5.37 29.1 43.8l60 90c9 13.5 10.2 31.2 2.4 45.9z" fill="#3dccc0"/><g id="Medical_Lab_1_"><g><path d="m300.987 362h30v30h-30z" fill="#1f9999"/></g><g><path d="m240.987 422h30v30h-30z" fill="#3dccc0"/></g><g><path d="m180.987 392h30v30h-30z" fill="#3dccc0"/></g><g><path d="m240.987 242h30v30h-30z" fill="#3dccc0"/></g></g><g fill="#1f9999"><path d="m259.587 422h11.4v30h-11.4z"/><path d="m259.587 242h11.4v30h-11.4z"/></g></g></svg>