<?xml version="1.0" encoding="iso-8859-1"?>
<!-- Generator: Adobe Illustrator 19.0.0, SVG Export Plug-In . SVG Version: 6.00 Build 0)  -->
<svg version="1.1" id="Capa_1" xmlns="http://www.w3.org/2000/svg" xmlns:xlink="http://www.w3.org/1999/xlink" x="0px" y="0px"
	 viewBox="0 0 512 512" style="enable-background:new 0 0 512 512;" xml:space="preserve">
<path style="fill:#4398D1;" d="M214.51,233.32l-6.621-42.99c-3.09-20.03-14.468-37.844-31.338-49.081
	c-16.958-11.326-37.738-15.431-57.732-11.388l-12.888,2.56l17.655,176.552h61.793v167.724h35.31V314.445
	C220.707,287.283,218.642,260.164,214.51,233.32z"/>
<path style="fill:#87CED9;" d="M164.281,350.374L164.281,350.374c27.127-25.732,28.266-68.59,2.534-95.718
	c-0.821-0.865-1.668-1.713-2.534-2.534l0,0c-27.11-25.688-28.257-68.484-2.569-95.594c0.83-0.883,1.686-1.739,2.569-2.569l0,0
	c27.127-25.732,28.266-68.59,2.534-95.718c-0.821-0.865-1.668-1.713-2.534-2.534l0,0c-28.54-27.207-73.419-27.207-101.959,0l0,0
	C22.678,93.517,0.168,145.865,0,200.658v4.767c0.168,54.784,22.678,107.132,62.323,144.949l0,0
	C90.862,377.58,135.742,377.58,164.281,350.374z"/>
<path style="fill:#6EC1D4;" d="M152.541,237.292c-33.368,40.254-64.265,62.852-109.462,91.807
	c5.941,7.503,12.367,14.61,19.244,21.275c28.54,27.207,73.419,27.207,101.959,0c27.127-25.732,28.266-68.59,2.534-95.718
	c-0.821-0.865-1.668-1.713-2.534-2.534C159.7,247.744,155.754,242.748,152.541,237.292z"/>
<g>
	<path style="fill:#4398D1;" d="M147.95,185.386c-25.097-6.162-44.685-25.75-50.847-50.847l17.655-4.237
		c4.661,18.397,19.032,32.768,37.429,37.429L147.95,185.386z"/>
	<path style="fill:#4398D1;" d="M114.759,275.78l-17.655-4.237c6.162-25.097,25.75-44.685,50.847-50.847l4.237,17.655
		C133.791,243.012,119.42,257.384,114.759,275.78z"/>
	<path style="fill:#4398D1;" d="M393.181,129.86c-19.994-4.043-40.775,0.062-57.732,11.388
		c-16.87,11.238-28.248,29.052-31.338,49.081l-6.621,42.99c-4.131,26.845-6.197,53.963-6.179,81.126v162.251h35.31V308.972h61.793
		l17.655-176.552L393.181,129.86z"/>
</g>
<path style="fill:#87CED9;" d="M347.719,350.374L347.719,350.374c-27.127-25.732-28.266-68.59-2.534-95.718
	c0.821-0.865,1.668-1.713,2.534-2.534l0,0c27.109-25.688,28.257-68.484,2.569-95.594c-0.83-0.883-1.686-1.739-2.569-2.569l0,0
	c-27.127-25.732-28.266-68.59-2.534-95.718c0.821-0.865,1.668-1.713,2.534-2.534l0,0c28.54-27.207,73.419-27.207,101.959,0l0,0
	c39.645,37.817,62.155,90.165,62.323,144.949v4.767c-0.168,54.784-22.678,107.132-62.323,144.949l0,0
	C421.138,377.58,376.258,377.58,347.719,350.374z"/>
<path style="fill:#6EC1D4;" d="M332.359,328.305c3.584,8.316,8.81,15.819,15.36,22.069c28.54,27.207,73.419,27.207,101.959,0
	c39.645-37.817,62.155-90.165,62.323-144.949v-4.767c-0.079-19.544-3.054-38.974-8.828-57.644
	C475.454,256.889,392.651,306.765,332.359,328.305z"/>
<g>
	<path style="fill:#4398D1;" d="M364.05,185.386l-4.237-17.655c18.397-4.661,32.768-19.032,37.429-37.429l17.126,4.237
		C408.294,159.495,388.943,179.057,364.05,185.386z"/>
	<path style="fill:#4398D1;" d="M397.241,275.78c-4.661-18.397-19.032-32.768-37.429-37.429l4.237-17.655
		c25.097,6.162,44.685,25.75,50.847,50.847L397.241,275.78z"/>
</g>
<g>
</g>
<g>
</g>
<g>
</g>
<g>
</g>
<g>
</g>
<g>
</g>
<g>
</g>
<g>
</g>
<g>
</g>
<g>
</g>
<g>
</g>
<g>
</g>
<g>
</g>
<g>
</g>
<g>
</g>
</svg>
