<svg id="Capa_1" enable-background="new 0 0 512 512" height="512" viewBox="0 0 512 512" width="512" xmlns="http://www.w3.org/2000/svg"><g><g fill="#ddebfd"><path d="m257.666 240.192-9.405 25.841c-1.109 3.046.462 6.415 3.508 7.523l49.928 18.172c3.046 1.109 6.415-.462 7.523-3.508l9.405-25.841-20.567-34.496z"/><path d="m241.642 113.233c0-63.074-51.57-114.102-114.846-113.222-60.987.849-110.761 50.622-111.609 111.61-.881 63.276 50.148 114.846 113.222 114.846 2.589 0 5.157-.087 7.703-.258 2.497-.168 4.942.746 6.727 2.501l33.845 33.287c3.667 3.607 9.878 1.346 10.369-3.774l4.53-47.254c.239-2.498 1.536-4.772 3.562-6.253 28.185-20.596 46.497-53.9 46.497-91.483z"/><path d="m348.071 27.328-17.158 47.14 6.362 26.794 31.765-12.918 17.158-47.14c1.015-2.788-.423-5.87-3.21-6.885l-28.031-10.202c-2.789-1.014-5.871.423-6.886 3.211z"/></g><path d="m382.987 34.32-22.211-8.084c2.28.83 3.305 3.762 2.29 6.55l-17.158 47.14 23.131 8.419 17.158-47.14c1.015-2.788-.422-5.87-3.21-6.885z" fill="#bed9fd"/><path d="m245.411 229.988 58.139-159.736c1.02-2.801 4.117-4.245 6.918-3.226l79.018 28.76c2.801 1.02 4.245 4.117 3.226 6.918l-58.14 159.736c-1.02 2.801-4.117 4.245-6.918 3.226l-79.018-28.76c-2.801-1.02-4.245-4.117-3.225-6.918z" fill="#6cbff8"/><path d="m389.486 95.787-19.087-6.947c2.422.882 3.559 3.867 2.539 6.668l-58.139 159.735c-1.02 2.801-3.809 4.357-6.231 3.476l19.086 6.947c2.801 1.02 5.898-.425 6.918-3.226l58.139-159.735c1.02-2.801-.424-5.899-3.225-6.918z" fill="#5fa7ee"/><path d="m293.414 253.203-9.405 25.841c-1.109 3.046-4.027 4.78-6.518 3.874l24.206 8.81c3.046 1.109 6.414-.462 7.523-3.508l9.405-25.841z" fill="#bed9fd"/><path d="m224.114 380.7v97.979l179.438-10h27.472c40.959 0 71.959-37.027 64.758-77.348l-38.04-212.991c-2.316-12.967-13.594-22.409-26.766-22.409h-80.663v37.201h54.419c7.584 0 13.731 6.148 13.731 13.731v156.177c0 15.276-12.384 27.66-27.66 27.66h-33.397z" fill="#ddebfd"/><path d="m495.782 391.331-38.04-212.991c-2.316-12.967-13.593-22.409-26.766-22.409h-27.472c13.172 0 24.45 9.442 26.766 22.409l38.04 212.99c7.201 40.321-23.799 77.348-64.758 77.348h27.472c40.958.001 71.959-37.027 64.758-77.347z" fill="#bed9fd"/><path d="m142.033 473.83v33.02c0 2.845 2.306 5.151 5.151 5.151h265.941c2.845 0 5.151-2.306 5.151-5.151v-38.17h-271.092c-2.844-.001-5.151 2.305-5.151 5.15z" fill="#407194"/><path d="m392.061 468.679v38.17c0 2.845-2.306 5.151-5.151 5.151h26.215c2.845 0 5.151-2.306 5.151-5.151v-38.17z" fill="#365f7e"/><path d="m191.561 355.469v30.08c0 2.845 2.306 5.151 5.151 5.151h166.886c2.845 0 5.151-2.306 5.151-5.151v-30.08c0-2.845-2.306-5.151-5.151-5.151h-166.886c-2.845 0-5.151 2.306-5.151 5.151z" fill="#407194"/><path d="m363.598 350.318h-26.215c2.845 0 5.151 2.306 5.151 5.151v30.08c0 2.845-2.306 5.151-5.151 5.151h26.215c2.845 0 5.151-2.306 5.151-5.151v-30.08c0-2.845-2.307-5.151-5.151-5.151z" fill="#365f7e"/><g transform="matrix(.987 -.16 .16 .987 -23.483 59.848)"><ellipse cx="359.469" cy="175.576" fill="#df646e" rx="47.02" ry="47.021"/><ellipse cx="359.469" cy="175.576" fill="#ddebfd" rx="15.673" ry="15.673"/></g><ellipse cx="176.437" cy="81.605" fill="#5392f9" rx="16.403" ry="16.403" transform="matrix(.987 -.16 .16 .987 -10.794 29.316)"/><ellipse cx="73.05" cy="112.153" fill="#ffa95f" rx="16.403" ry="16.403" transform="matrix(.987 -.16 .16 .987 -17.022 13.15)"/><path d="m185.676 163.657c-1.978 0-3.955-.754-5.464-2.263-3.017-3.018-3.017-7.909.001-10.927l11.77-11.769c3.017-3.018 7.909-3.018 10.927 0 3.017 3.018 3.017 7.909-.001 10.927l-11.77 11.769c-1.508 1.508-3.486 2.263-5.463 2.263z" fill="#6cbff8"/><path d="m98.065 69.68c-1.977 0-3.955-.754-5.463-2.263-3.018-3.017-3.018-7.909-.001-10.927l11.769-11.769c3.018-3.017 7.91-3.018 10.927 0 3.018 3.017 3.018 7.909.001 10.927l-11.769 11.769c-1.509 1.508-3.487 2.263-5.464 2.263z" fill="#5392f9"/><path d="m134.293 122.357c-1.978 0-3.955-.754-5.464-2.263l-11.769-11.769c-3.017-3.018-3.017-7.909.001-10.927 3.017-3.018 7.909-3.018 10.927 0l11.769 11.769c3.017 3.018 3.017 7.909-.001 10.927-1.509 1.508-3.486 2.263-5.463 2.263z" fill="#6cbff8"/><path d="m111.971 183.98c-1.977 0-3.955-.754-5.463-2.263-3.018-3.017-3.018-7.909-.001-10.927l11.769-11.769c3.018-3.017 7.91-3.018 10.927 0 3.018 3.017 3.018 7.909.001 10.927l-11.769 11.769c-1.509 1.508-3.487 2.263-5.464 2.263z" fill="#5392f9"/></g></svg>