<?xml version="1.0" encoding="utf-8"?>
<!-- Generator: Adobe Illustrator 24.1.1, SVG Export Plug-In . SVG Version: 6.00 Build 0)  -->
<svg version="1.1" id="Layer_1" xmlns="http://www.w3.org/2000/svg" xmlns:xlink="http://www.w3.org/1999/xlink" x="0px" y="0px"
	 viewBox="0 0 120 126" style="enable-background:new 0 0 120 126;" xml:space="preserve">
<style type="text/css">
	.st0{fill:#FFFFFF;}
</style>
<g id="XMLID_10428_">
	<path id="XMLID_10435_" class="st0" d="M6.7,82.83c0,18.56,15.1,33.67,33.67,33.67c17.09,0,31.46-12.79,33.43-29.76
		c0.06-0.54-0.11-1.08-0.47-1.48c-0.36-0.4-0.88-0.64-1.42-0.64h-6.7c-0.94,0-1.74,0.69-1.88,1.62
		c-1.67,11.29-11.54,19.81-22.97,19.81c-12.8,0-23.22-10.42-23.22-23.22c0-11.94,9.32-22.1,21.21-23.13
		c0.53-0.04,1.02-0.31,1.34-0.74c0.33-0.42,0.46-0.96,0.36-1.49l-1.18-6.57c-0.18-0.98-1.07-1.64-2.07-1.55
		C19.65,51.16,6.7,65.55,6.7,82.83z M35.47,53.36l0.51,2.81C23.13,58.3,13.35,69.62,13.35,82.83c0,14.9,12.12,27.02,27.02,27.02
		c12.74,0,23.83-9.1,26.44-21.43h2.9c-2.64,13.98-14.9,24.28-29.34,24.28c-16.47,0-29.87-13.4-29.87-29.87
		C10.5,68.09,21.12,55.72,35.47,53.36z"/>
	<path id="XMLID_10432_" class="st0" d="M82.69,41.85c0-2.88-2.34-5.22-5.22-5.22h-30.6c-1.55,0-3.01,0.68-4.01,1.87
		c-1,1.19-1.41,2.75-1.13,4.28l6.24,34.7c0.45,2.49,2.61,4.3,5.14,4.3h26.3l9.54,20.18c0.73,2.11,2.69,3.52,4.94,3.52
		c0.53,0,1.06-0.08,1.56-0.24c1.33-0.42,2.42-1.33,3.07-2.57c0.65-1.24,0.77-2.65,0.35-3.98c-0.02-0.08-0.05-0.15-0.08-0.22
		L88.01,74.85c-0.72-2.12-2.69-3.53-4.94-3.53H57.48l-4.36-24.25h24.35C80.35,47.07,82.69,44.73,82.69,41.85z M84.42,76.12
		c0.02,0.08,0.05,0.15,0.08,0.22l10.77,23.57c0.08,0.34,0.04,0.69-0.12,1c-0.18,0.34-0.47,0.58-0.84,0.7
		c-0.73,0.23-1.55-0.2-1.78-0.93c-0.02-0.08-0.06-0.16-0.09-0.24l-10.1-21.38c-0.31-0.66-0.98-1.09-1.72-1.09H53.12
		c-0.69,0-1.28-0.49-1.4-1.17l-6.24-34.7c-0.08-0.42,0.04-0.84,0.31-1.17c0.27-0.33,0.67-0.51,1.09-0.51h30.6
		c0.79,0,1.42,0.64,1.42,1.42c0,0.79-0.64,1.42-1.42,1.42H50.85c-0.56,0-1.1,0.25-1.46,0.68c-0.36,0.43-0.51,1-0.41,1.56l5.05,28.05
		c0.16,0.9,0.95,1.56,1.87,1.56h27.17C83.69,75.12,84.24,75.52,84.42,76.12z"/>
	<path id="XMLID_10429_" class="st0" d="M43.9,10.51c-6.59,0-11.95,5.36-11.95,11.95S37.31,34.4,43.9,34.4
		c6.59,0,11.95-5.36,11.95-11.95S50.48,10.51,43.9,10.51z M43.9,30.6c-4.49,0-8.15-3.66-8.15-8.15c0-4.49,3.65-8.15,8.15-8.15
		c4.49,0,8.15,3.65,8.15,8.15C52.04,26.95,48.39,30.6,43.9,30.6z"/>
</g>
</svg>
